<?xml version="1.0" standalone="no"?>
<!DOCTYPE svg PUBLIC "-//W3C//DTD SVG 20010904//EN"
 "http://www.w3.org/TR/2001/REC-SVG-20010904/DTD/svg10.dtd">
<svg version="1.0" xmlns="http://www.w3.org/2000/svg"
 width="2048.000000pt" height="2048.000000pt" viewBox="0 0 2048.000000 2048.000000"
 preserveAspectRatio="xMidYMid meet">

<g transform="translate(0.000000,2048.000000) scale(0.100000,-0.100000)"
fill="#000000" stroke="none">
<path d="M10059 15183 c-33 -85 -58 -158 -55 -161 3 -3 31 62 36 83 1 6 11 31
21 58 10 26 16 47 14 47 -3 0 -10 -12 -16 -27z"/>
<path d="M9976 14965 c-9 -26 -7 -32 5 -12 6 10 9 21 6 23 -2 3 -7 -2 -11 -11z"/>
<path d="M9738 14438 c-37 -73 -101 -197 -143 -275 -42 -79 -72 -143 -67 -143
5 0 15 13 22 30 7 17 17 27 24 23 6 -3 8 -2 3 2 -4 5 -1 15 7 24 7 9 18 29 23
45 5 17 16 32 24 35 12 4 12 1 -1 -14 -14 -16 -13 -17 8 -11 13 4 22 3 22 -3
0 -6 6 -8 14 -5 8 3 17 0 21 -5 8 -13 25 -5 25 12 0 8 -3 8 -9 -2 -6 -10 -10
-10 -16 -1 -9 15 -3 21 24 23 27 2 27 17 0 17 -18 0 -20 2 -8 16 7 8 21 13 30
11 19 -5 33 18 22 35 -3 6 -2 8 4 5 7 -4 8 7 3 33 -8 42 -3 55 19 55 8 0 16 6
19 13 2 7 -2 10 -12 6 -21 -8 -21 12 0 24 11 6 14 14 8 23 -14 22 -15 44 -1
30 16 -16 26 -14 22 7 -1 9 -9 17 -17 16 -8 -1 -15 5 -15 12 0 7 5 10 11 7 6
-4 5 0 -2 9 -10 13 -11 22 -2 38 6 12 10 26 8 31 -2 5 -33 -50 -70 -123z m19
-150 c-3 -8 -6 -5 -6 6 -1 11 2 17 5 13 3 -3 4 -12 1 -19z"/>
<path d="M9821 14404 c0 -11 3 -14 6 -6 3 7 2 16 -1 19 -3 4 -6 -2 -5 -13z"/>
<path d="M9778 14323 c7 -3 16 -2 19 1 4 3 -2 6 -13 5 -11 0 -14 -3 -6 -6z"/>
<path d="M9770 14209 c0 -5 5 -9 11 -9 5 0 7 -6 3 -12 -4 -7 -3 -10 1 -5 5 4
17 -1 27 -10 18 -16 18 -16 12 0 -3 9 -10 17 -16 17 -5 0 -7 4 -4 9 3 5 -3 11
-14 14 -11 3 -20 1 -20 -4z"/>
<path d="M9789 14169 c0 -2 -2 -11 -4 -20 -1 -9 3 -16 10 -16 7 0 12 6 11 13
-2 13 -15 31 -17 23z"/>
<path d="M9735 14151 c-3 -5 -1 -13 5 -16 8 -5 7 -11 -1 -21 -6 -7 -16 -11
-21 -8 -6 4 -5 -3 1 -15 13 -23 26 -29 18 -7 -3 8 2 16 14 19 10 3 17 1 13 -4
-3 -5 0 -9 6 -9 6 0 8 -4 5 -10 -3 -5 -1 -10 5 -10 6 0 15 10 20 23 7 18 9 18
9 4 1 -10 6 -15 11 -12 6 4 7 11 4 17 -5 8 -1 9 12 4 13 -5 16 -4 9 3 -6 5
-27 11 -47 13 -20 1 -36 4 -36 7 3 29 -14 42 -27 22z"/>
<path d="M9865 14139 c-4 -6 -4 -13 -1 -16 3 -3 0 -15 -6 -27 -10 -19 -10 -20
6 -7 9 8 14 21 11 29 -3 9 0 19 7 24 9 5 10 8 1 8 -6 0 -15 -5 -18 -11z"/>
<path d="M9626 14131 c-4 -5 -2 -12 3 -15 5 -4 12 -2 15 3 4 5 2 12 -3 15 -5
4 -12 2 -15 -3z"/>
<path d="M9612 14099 c2 -7 10 -15 17 -17 8 -3 12 1 9 9 -2 7 -10 15 -17 17
-8 3 -12 -1 -9 -9z"/>
<path d="M9672 14091 c2 -7 7 -12 11 -12 12 1 9 15 -3 20 -7 2 -11 -2 -8 -8z"/>
<path d="M9905 14070 c-3 -5 -1 -10 4 -10 6 0 11 5 11 10 0 6 -2 10 -4 10 -3
0 -8 -4 -11 -10z"/>
<path d="M9797 14044 c-4 -4 2 -19 13 -34 11 -15 16 -31 12 -35 -4 -5 -2 -5 5
-2 8 5 7 16 -4 40 -20 40 -18 38 -26 31z"/>
<path d="M9755 14019 c-4 -5 -12 -6 -18 -2 -7 4 -6 0 2 -10 11 -13 11 -17 1
-17 -8 0 -11 -3 -7 -6 3 -3 14 -1 24 5 10 6 14 11 8 11 -5 1 -1 5 9 9 17 7 18
8 3 14 -9 3 -19 2 -22 -4z"/>
<path d="M9888 14005 c-7 -9 -19 -22 -26 -30 -10 -11 -9 -14 7 -12 11 0 17 5
14 10 -3 4 3 17 13 28 9 10 14 19 11 19 -3 0 -12 -7 -19 -15z"/>
<path d="M9489 13968 c-18 -37 -19 -40 -3 -22 28 30 46 64 34 64 -5 0 -19 -19
-31 -42z"/>
<path d="M9760 13970 c-9 -6 -10 -10 -3 -10 6 0 15 5 18 10 8 12 4 12 -15 0z"/>
<path d="M9820 13956 c0 -2 7 -7 16 -10 8 -3 12 -2 9 4 -6 10 -25 14 -25 6z"/>
<path d="M9876 13938 c3 -5 10 -6 15 -3 13 9 11 12 -6 12 -8 0 -12 -4 -9 -9z"/>
<path d="M10139 13919 c-1 -39 -6 -59 -20 -76 -21 -25 -20 -47 4 -66 15 -12
17 -15 5 -11 -18 6 -97 -25 -98 -38 0 -10 30 -6 50 6 12 7 12 6 3 -4 -6 -7 -9
-18 -6 -26 3 -9 -2 -12 -21 -8 -20 3 -24 1 -20 -11 4 -8 2 -15 -4 -15 -6 0
-13 6 -15 13 -3 6 -6 0 -6 -15 -1 -19 5 -29 22 -34 12 -5 25 -7 29 -6 14 3 20
-41 7 -50 -9 -6 -5 -7 12 -3 21 5 27 2 32 -15 3 -12 3 -19 0 -16 -3 3 -14 1
-24 -4 -12 -7 -20 -6 -25 2 -4 7 -3 8 4 4 7 -4 12 -3 12 2 0 14 -35 21 -51 11
-8 -5 -9 -9 -3 -9 6 0 11 -7 11 -15 0 -18 -9 -19 -24 -4 -15 15 -33 2 -27 -19
5 -14 4 -15 -5 -2 -5 8 -13 11 -17 7 -11 -11 15 -35 47 -42 30 -7 37 -19 17
-31 -6 -4 -8 -3 -5 3 8 13 -20 26 -35 17 -6 -4 -5 -10 3 -15 11 -7 10 -9 -4
-9 -11 0 -16 -5 -12 -12 4 -7 0 -4 -9 6 -14 17 -14 20 1 31 15 11 15 13 -6 24
-13 7 -20 19 -17 26 3 8 -4 17 -17 21 -12 3 -32 18 -44 31 -19 22 -24 23 -29
9 -9 -23 -22 -20 -27 7 -3 16 -5 12 -7 -13 l-2 -35 -7 29 c-6 28 -7 29 -23 12
-22 -22 -23 -40 -2 -32 10 4 14 1 12 -6 -7 -20 -48 -23 -48 -4 0 9 -5 16 -11
16 -5 0 -7 -4 -4 -10 3 -5 -2 -10 -12 -10 -11 0 -19 8 -20 19 -1 14 3 18 13
14 8 -3 14 0 14 6 0 6 -9 11 -20 11 -11 0 -20 4 -20 9 0 12 37 24 50 16 5 -3
10 1 10 9 0 8 -5 18 -12 22 -7 5 -9 2 -4 -7 4 -8 0 -4 -9 8 -13 17 -21 20 -46
13 -19 -6 -31 -5 -35 3 -4 7 -3 9 1 4 5 -4 17 1 28 10 13 11 17 12 12 4 -6
-11 -4 -13 9 -8 10 4 22 7 27 7 6 0 9 10 7 23 -2 14 2 21 10 19 8 -1 11 6 8
23 -3 14 0 24 6 22 6 -1 13 4 16 12 3 10 0 12 -10 8 -9 -3 -21 0 -28 6 -10 10
-11 4 -7 -25 3 -21 2 -38 -4 -38 -5 0 -9 7 -9 15 0 10 -10 15 -30 15 -24 0
-29 4 -27 21 3 28 -30 50 -43 29 -8 -13 -10 -12 -10 3 0 11 -7 18 -17 16 -35
-3 -54 1 -48 11 4 6 11 8 16 5 5 -4 9 -1 9 4 0 14 -27 14 -35 1 -12 -19 17
-42 44 -36 l26 6 -25 -14 c-14 -8 -27 -11 -30 -8 -9 12 -30 13 -30 1 0 -5 -5
-7 -10 -4 -6 4 -8 10 -5 15 6 9 -10 7 -39 -5 -13 -6 -21 -4 -24 3 -2 7 -8 10
-13 6 -5 -3 -1 9 9 28 72 134 44 106 -41 -39 -170 -293 -403 -662 -657 -1043
-720 -1079 -992 -1595 -1125 -2132 -53 -214 -68 -365 -62 -612 5 -227 21 -345
76 -559 169 -653 640 -1227 1262 -1536 380 -189 759 -274 1229 -275 198 0 260
3 390 23 85 13 162 26 172 30 15 5 6 16 -49 56 -180 132 -499 443 -660 643
-249 310 -449 633 -577 932 -180 424 -286 806 -350 1267 -44 316 -51 430 -51
813 0 408 10 634 30 653 7 7 61 19 121 26 240 29 551 93 756 157 145 45 278
96 273 104 -3 5 -8 366 -12 802 -3 436 -7 795 -9 797 -2 2 -4 -7 -5 -20z
m-651 -145 c8 -15 8 -21 -1 -21 -7 0 -13 11 -13 24 -2 27 -1 27 14 -3z m152 6
c0 -5 -2 -10 -4 -10 -3 0 -8 5 -11 10 -3 6 -1 10 4 10 6 0 11 -4 11 -10z m-34
-15 c4 -8 10 -13 14 -10 5 3 11 1 14 -4 4 -5 2 -12 -4 -16 -5 -3 -10 -15 -10
-26 0 -12 4 -17 11 -13 6 3 3 -5 -6 -20 -19 -28 -32 -36 -17 -10 10 19 4 62
-11 71 -6 4 -7 1 -2 -8 9 -14 9 -14 -35 19 -3 2 4 2 14 0 10 -1 21 3 24 11 3
10 0 12 -11 8 -9 -3 -19 -2 -22 3 -4 6 3 10 15 10 11 0 23 -7 26 -15z m514
-15 c0 -5 -4 -10 -10 -10 -5 0 -10 5 -10 10 0 6 5 10 10 10 6 0 10 -4 10 -10z
m-456 -65 c-4 -8 -10 -15 -15 -15 -4 0 -6 7 -3 15 4 8 10 15 15 15 4 0 6 -7 3
-15z m46 5 c0 -5 -2 -10 -4 -10 -3 0 -8 5 -11 10 -3 6 -1 10 4 10 6 0 11 -4
11 -10z m375 -20 c4 -6 -1 -7 -12 -4 -16 5 -16 4 1 -10 11 -9 15 -16 9 -16
-14 0 -34 25 -26 33 9 10 21 9 28 -3z m-391 -38 c-6 -4 -11 -19 -11 -34 -2
-49 -5 -54 -14 -23 -11 37 -3 65 19 65 10 0 13 -3 6 -8z m406 -30 c0 -15 -2
-15 -10 -2 -13 20 -13 33 0 25 6 -3 10 -14 10 -23z m-480 8 c0 -5 7 -10 15
-10 8 0 12 -6 9 -13 -3 -8 -11 -14 -19 -14 -8 0 -12 4 -9 9 3 5 0 15 -6 23 -9
11 -9 15 -1 15 6 0 11 -4 11 -10z m246 -72 c-3 -13 -5 -25 -6 -28 0 -3 -5 3
-11 13 -10 18 -5 37 12 37 5 0 7 -10 5 -22z m43 -7 c9 -6 10 -11 2 -15 -6 -4
-11 -2 -11 4 0 6 -4 8 -10 5 -5 -3 -10 -1 -10 4 0 13 10 14 29 2z m-288 -18
c11 -15 11 -16 0 -6 -7 6 -21 9 -30 6 -14 -4 -14 -3 -1 6 8 6 16 11 16 11 1 0
8 -8 15 -17z m214 -2 c-9 -8 -36 -10 -30 -2 2 4 11 8 20 8 8 0 13 -3 10 -6z
m-80 -11 c3 -5 -1 -10 -10 -10 -9 0 -13 5 -10 10 3 6 8 10 10 10 2 0 7 -4 10
-10z m315 1 c0 -6 -9 -9 -20 -8 -11 1 -20 5 -20 9 0 4 9 8 20 8 11 0 20 -4 20
-9z m-160 -11 c12 6 21 7 25 1 9 -16 -30 -32 -43 -19 -7 7 -12 17 -11 23 0 5
3 4 6 -2 3 -9 10 -10 23 -3z m-44 -25 c-1 -23 -2 -24 -13 -8 -17 22 -16 33 1
33 9 0 13 -10 12 -25z m242 -1 c5 -9 13 -15 18 -15 4 1 9 -9 9 -23 2 -19 -2
-22 -19 -18 -19 5 -20 4 -6 -13 8 -10 10 -16 3 -12 -6 4 -14 3 -18 -3 -3 -5
-11 -10 -18 -10 -6 0 -2 7 9 15 12 9 14 14 6 15 -7 0 -10 5 -6 12 4 6 3 8 -2
5 -6 -3 -16 -1 -24 4 -11 8 -2 9 30 6 25 -3 37 -3 28 0 -10 2 -18 11 -18 19 0
8 -4 14 -10 14 -5 0 -10 5 -10 10 0 16 18 12 28 -6z m-317 -11 c13 -16 12 -17
-3 -4 -17 13 -22 21 -14 21 2 0 10 -8 17 -17z m287 -1 c6 -18 -15 -14 -22 4
-4 10 -1 14 6 12 6 -2 14 -10 16 -16z m-44 -44 c-4 -6 2 -8 15 -3 13 4 21 2
21 -5 0 -6 -4 -9 -9 -5 -5 3 -12 1 -16 -5 -3 -5 -2 -10 3 -10 5 0 14 -12 21
-26 9 -20 17 -25 35 -22 12 3 23 0 23 -6 0 -6 -11 -12 -24 -12 -13 -1 -23 3
-23 8 0 6 -9 8 -20 5 -10 -3 -26 0 -35 7 -13 9 -14 17 -6 38 7 18 7 29 1 33
-6 4 -10 2 -10 -3 0 -6 -9 -8 -21 -5 -20 5 -20 6 3 18 25 13 51 9 42 -7z m36
-109 c0 -5 -11 -9 -25 -9 -14 0 -25 4 -25 10 0 5 7 7 15 4 8 -4 15 -1 15 6 0
6 5 8 10 5 6 -3 10 -10 10 -16z m-71 -46 c0 -25 -1 -26 -9 -8 -12 27 -12 35 0
35 6 0 10 -12 9 -27z m57 4 c1 -9 -2 -15 -7 -11 -5 3 -6 10 -3 16 5 7 1 9 -9
5 -9 -3 -19 -1 -23 4 -4 7 3 9 16 7 13 -1 24 -11 26 -21z m-11 -51 c-3 -23 17
-42 38 -37 5 1 6 -3 3 -8 -3 -5 -21 -1 -39 8 -32 15 -33 17 -19 39 18 28 20
28 17 -2z m80 -106 c-12 -5 -14 -9 -6 -9 8 -1 12 -4 8 -7 -9 -9 -28 6 -22 17
4 5 14 9 23 8 14 0 13 -2 -3 -9z m-65 -26 c0 -8 -5 -12 -10 -9 -6 4 -8 11 -5
16 9 14 15 11 15 -7z m-1865 -2761 c0 -265 1 -284 27 -403 132 -612 536 -1133
1098 -1415 111 -56 267 -118 374 -150 l81 -24 -75 0 c-206 -2 -540 92 -790
220 -464 239 -795 679 -912 1210 -21 94 -23 128 -22 364 1 170 6 289 15 345
l14 85 95 21 c52 12 95 22 95 23 0 0 0 -124 0 -276z"/>
<path d="M10025 13361 c-6 -11 13 -26 22 -17 4 3 1 6 -6 6 -7 0 -9 5 -6 10 3
6 4 10 1 10 -3 0 -7 -4 -11 -9z"/>
<path d="M9860 13919 c0 -11 47 -12 53 -1 3 4 -8 7 -24 8 -16 1 -29 -3 -29 -7z"/>
<path d="M9508 13863 c-10 -2 -18 -11 -18 -19 0 -11 4 -10 20 3 17 15 26 26
18 22 -2 -1 -11 -3 -20 -6z"/>
<path d="M9980 13855 c0 -8 4 -15 10 -15 5 0 7 7 4 15 -4 8 -8 15 -10 15 -2 0
-4 -7 -4 -15z"/>
<path d="M9605 13850 c-3 -5 -2 -10 4 -10 5 0 13 5 16 10 3 6 2 10 -4 10 -5 0
-13 -4 -16 -10z"/>
<path d="M10031 13774 c0 -11 3 -14 6 -6 3 7 2 16 -1 19 -3 4 -6 -2 -5 -13z"/>
<path d="M9800 13729 c0 -5 9 -9 20 -9 11 0 20 -4 20 -10 0 -5 -3 -9 -7 -7 -9
2 -13 -6 -13 -24 0 -7 4 -8 13 -2 6 5 23 8 37 7 27 -2 50 12 50 30 0 6 -6 4
-13 -4 -12 -16 -62 -25 -52 -10 3 5 1 11 -5 15 -6 4 -8 9 -6 13 2 4 -7 8 -20
8 -13 1 -24 -2 -24 -7z"/>
<path d="M9985 13710 c-3 -5 -1 -10 4 -10 6 0 11 5 11 10 0 6 -2 10 -4 10 -3
0 -8 -4 -11 -10z"/>
<path d="M9755 13690 c-3 -5 -2 -10 4 -10 5 0 13 5 16 10 3 6 2 10 -4 10 -5 0
-13 -4 -16 -10z"/>
<path d="M9960 13690 c8 -5 20 -10 25 -10 6 0 3 5 -5 10 -8 5 -19 10 -25 10
-5 0 -3 -5 5 -10z"/>
<path d="M9730 13660 c-9 -6 -10 -10 -3 -10 6 0 15 5 18 10 8 12 4 12 -15 0z"/>
<path d="M9846 13662 c-3 -5 1 -9 9 -9 8 0 12 4 9 9 -3 4 -7 8 -9 8 -2 0 -6
-4 -9 -8z"/>
<path d="M9800 13630 c0 -6 7 -10 15 -10 8 0 15 2 15 4 0 2 -7 6 -15 10 -8 3
-15 1 -15 -4z"/>
<path d="M9880 13608 c0 -5 12 -8 26 -8 16 0 23 -4 18 -12 -4 -7 -3 -8 4 -4
18 11 4 31 -23 31 -14 0 -25 -3 -25 -7z"/>
<path d="M9940 13616 c0 -2 7 -9 15 -16 9 -7 15 -8 15 -2 0 5 -7 12 -15 16 -8
3 -15 4 -15 2z"/>
<path d="M10005 13610 c-4 -6 -1 -9 7 -8 7 2 12 -3 11 -9 -3 -14 7 -16 31 -7
13 5 14 9 5 20 -13 16 -45 18 -54 4z"/>
<path d="M9950 13566 c0 -2 8 -10 18 -17 15 -13 16 -12 3 4 -13 16 -21 21 -21
13z"/>
<path d="M11005 12202 c-214 -157 -502 -309 -773 -408 -51 -19 -101 -34 -111
-34 -10 0 -69 49 -131 108 l-114 108 -108 -28 c-96 -24 -368 -75 -499 -93
l-47 -6 -6 -252 c-31 -1127 221 -2077 753 -2840 269 -386 682 -784 1054 -1017
l68 -42 77 47 c598 367 1107 954 1396 1608 94 215 223 592 243 710 l5 32 -102
-3 c-56 -2 -122 -1 -145 3 -43 6 -43 6 -34 38 16 56 69 317 89 442 32 195 51
441 57 750 l6 290 -119 17 c-486 71 -1052 304 -1415 584 -32 24 -59 44 -61 44
-2 0 -40 -26 -83 -58z m113 -192 c144 -13 180 -31 235 -117 61 -94 75 -123
118 -243 21 -58 38 -100 38 -94 2 30 -31 190 -48 234 -23 59 -13 64 45 22 125
-91 215 -272 240 -486 9 -72 33 -102 128 -163 63 -41 68 -46 50 -56 -13 -8
-149 -11 -434 -12 -441 0 -466 2 -845 57 -115 17 -253 33 -305 37 -107 7 -105
5 -70 84 17 37 20 40 25 20 8 -24 37 -31 255 -59 147 -18 704 -31 837 -18 87
8 85 8 -97 15 -274 11 -585 50 -614 79 -5 5 -27 10 -47 10 -43 0 -282 30 -288
36 -3 2 3 37 11 77 60 273 187 394 361 343 31 -9 73 -30 92 -47 39 -34 105
-158 105 -198 1 -24 2 -24 12 -7 12 20 5 115 -13 179 -6 21 -27 56 -46 78 -52
58 -100 79 -175 79 l-63 0 38 26 c66 45 118 57 181 44 73 -15 131 -56 177
-125 38 -56 89 -194 89 -241 0 -13 5 -24 11 -24 14 0 2 163 -18 240 -29 112
-94 181 -200 211 l-48 13 60 6 c92 10 93 10 203 0z m-508 -939 c52 -26 90
-105 90 -185 0 -118 -48 -202 -127 -226 -38 -12 -46 -11 -89 11 -123 62 -153
288 -53 388 44 44 106 48 179 12z m511 -92 c101 -5 260 -7 353 -3 l169 7 -7
-115 c-10 -169 -36 -268 -123 -463 -52 -116 -93 -168 -152 -194 -99 -42 -180
-27 -381 74 -164 82 -269 154 -320 220 -24 30 -41 57 -39 58 2 1 21 11 42 21
92 47 136 142 145 310 l5 108 62 -6 c35 -3 145 -11 246 -17z m-509 -662 c432
-222 660 -449 774 -772 l29 -80 6 60 c13 116 39 472 39 538 0 36 4 68 8 71 5
3 46 -33 93 -79 46 -47 92 -93 102 -102 109 -107 140 -144 182 -214 91 -154
154 -362 174 -574 7 -66 14 -132 16 -147 3 -20 -13 -51 -77 -140 -212 -297
-457 -546 -775 -786 l-81 -61 -89 65 c-543 405 -956 941 -1210 1574 l-54 135
27 21 c14 12 48 32 74 44 l47 22 100 -51 c320 -164 569 -504 747 -1020 47
-133 79 -259 101 -391 28 -162 38 -148 32 41 -7 202 -27 342 -72 516 -105 402
-341 776 -607 963 l-69 48 46 17 c39 15 53 16 107 6 220 -43 524 -195 687
-345 l34 -31 -20 30 c-56 81 -260 254 -398 337 -74 45 -205 108 -223 108 -8 0
-12 3 -10 8 2 4 31 62 64 130 32 67 62 122 65 122 4 0 63 -28 131 -63z m1373
-464 c75 -38 164 -104 220 -164 55 -59 115 -141 115 -158 0 -33 -266 -529
-277 -517 -3 2 0 44 6 93 36 288 -15 571 -132 742 -29 43 -29 43 -6 36 13 -4
47 -19 74 -32z"/>
<path d="M10010 6144 c-153 -32 -318 -156 -388 -291 -89 -171 -94 -383 -11
-551 36 -73 129 -177 198 -221 108 -70 291 -109 422 -91 166 23 270 71 369
170 226 224 228 602 5 825 -144 144 -377 206 -595 159z m230 -225 c158 -34
269 -195 258 -374 -5 -76 -41 -170 -81 -214 -70 -75 -181 -117 -285 -108 -176
17 -297 144 -309 326 -10 136 39 246 142 316 85 59 172 76 275 54z"/>
<path d="M13582 6130 c-207 -54 -365 -212 -417 -415 -19 -75 -19 -211 0 -294
71 -298 388 -481 716 -413 102 21 204 65 281 122 l47 35 1 220 0 220 -103 0
-102 0 -3 -171 -2 -172 -48 -20 c-163 -70 -336 -51 -449 52 -78 70 -132 216
-119 319 16 118 97 241 189 288 97 50 222 57 334 18 57 -19 143 -74 143 -90 0
-17 11 -8 85 70 l70 73 -35 30 c-62 53 -163 106 -240 127 -98 27 -246 28 -348
1z"/>
<path d="M14785 6132 c-98 -29 -184 -81 -260 -157 -117 -116 -165 -235 -165
-410 0 -49 7 -115 15 -145 65 -245 276 -410 545 -427 286 -17 545 169 615 442
43 169 -10 383 -130 522 -48 56 -168 135 -246 163 -89 31 -287 38 -374 12z
m320 -224 c71 -37 133 -102 169 -178 28 -59 31 -74 31 -165 0 -93 -2 -105 -33
-167 -111 -226 -421 -265 -588 -73 -142 162 -116 424 53 550 70 51 122 65 228
62 74 -3 99 -8 140 -29z"/>
<path d="M4950 5575 l0 -565 135 0 135 0 0 149 0 149 203 4 c171 4 211 8 257
25 179 66 266 164 292 330 28 179 -57 351 -207 422 -100 47 -139 51 -487 51
l-328 0 0 -565z m684 291 c79 -60 90 -182 23 -255 -47 -51 -88 -61 -269 -61
l-168 0 0 176 0 175 188 -3 189 -3 37 -29z"/>
<path d="M6132 5575 l0 -565 474 0 474 0 0 115 0 115 -337 2 -338 3 -3 106 -3
106 77 7 c42 3 182 6 311 6 l233 0 0 110 0 110 -307 2 -308 3 0 105 0 105 338
3 337 2 0 115 0 115 -474 0 -473 0 -1 -565z"/>
<path d="M7192 6023 l3 -118 193 -3 192 -2 0 -445 0 -445 135 0 135 0 0 445 0
445 195 0 195 0 0 120 0 120 -526 0 -526 0 4 -117z"/>
<path d="M8400 5575 l0 -565 135 0 135 0 2 163 3 162 120 2 120 2 110 -161
c60 -88 114 -162 120 -164 6 -3 79 -3 163 -2 l152 3 -130 179 c-71 98 -130
182 -130 185 0 3 25 21 55 39 207 125 241 441 66 605 -113 106 -166 117 -588
117 l-333 0 0 -565z m697 297 c73 -52 81 -171 17 -242 -46 -51 -89 -60 -283
-60 l-161 0 0 166 0 165 198 -3 c186 -3 199 -4 229 -26z"/>
<path d="M10960 5575 l0 -565 121 0 120 0 -2 173 -2 172 133 0 133 0 116 -162
c64 -89 121 -167 127 -173 7 -7 58 -10 143 -8 l132 3 -135 185 c-75 101 -136
187 -136 190 0 3 19 14 42 25 58 28 122 95 154 163 40 83 45 204 13 305 -19
61 -32 81 -83 133 -107 107 -190 123 -628 124 l-248 0 0 -565z m653 331 c21
-10 50 -35 65 -54 24 -31 27 -44 27 -112 0 -68 -3 -81 -27 -112 -50 -65 -79
-73 -295 -76 l-193 -3 0 184 c0 101 3 187 7 191 4 4 91 6 193 4 157 -3 191 -6
223 -22z"/>
<path d="M12130 5573 l0 -563 455 0 455 0 0 105 0 105 -340 0 -340 0 0 130 0
130 308 0 308 0 -3 98 -3 97 -47 1 c-27 1 -164 2 -305 3 l-258 1 0 125 0 125
335 0 335 0 0 106 0 105 -450 -2 -450 -2 0 -564z"/>
<path d="M6853 4313 l-43 -4 0 -230 0 -229 89 0 c171 0 252 32 301 120 35 63
35 157 0 220 -60 106 -156 140 -347 123z m205 -69 c102 -42 140 -148 89 -244
-34 -65 -87 -90 -194 -90 l-83 0 0 175 0 175 75 0 c46 0 90 -6 113 -16z"/>
<path d="M7322 4088 l3 -233 28 -3 27 -3 0 235 0 236 -31 0 -30 0 3 -232z"/>
<path d="M7565 4301 c-52 -23 -75 -59 -75 -114 0 -67 25 -91 127 -122 112 -35
133 -48 133 -90 0 -18 -8 -39 -17 -48 -42 -37 -142 -29 -198 15 -21 16 -31 19
-44 11 -76 -48 125 -129 232 -94 53 18 87 63 87 116 0 68 -31 97 -146 135
-106 36 -132 58 -115 103 6 14 19 31 30 36 34 19 110 13 153 -11 40 -23 40
-23 54 -3 14 18 13 22 -12 41 -56 45 -143 56 -209 25z"/>
<path d="M7870 4290 l0 -30 75 0 75 0 0 -205 0 -205 25 0 25 0 0 205 0 205 81
0 80 0 -3 28 -3 27 -177 3 -178 2 0 -30z"/>
<path d="M8328 4313 l-28 -4 0 -230 0 -229 30 0 30 0 0 85 0 85 70 0 70 0 48
-67 c76 -107 74 -105 111 -101 l33 3 -64 85 -65 86 38 16 c51 22 74 60 74 124
0 60 -22 97 -75 128 -26 16 -55 20 -139 22 -58 1 -118 0 -133 -3z m242 -66
c39 -20 56 -58 45 -104 -14 -55 -55 -73 -167 -73 l-88 0 0 95 0 95 93 0 c53 0
102 -6 117 -13z"/>
<path d="M8777 4314 c-4 -4 -7 -110 -7 -236 l0 -228 30 0 30 0 -2 233 c-3 225
-4 232 -23 235 -12 2 -24 0 -28 -4z"/>
<path d="M8950 4087 l0 -232 143 3 c86 3 155 9 174 17 87 36 91 168 5 206
l-29 13 33 32 c66 62 35 156 -62 183 -21 6 -90 11 -151 11 l-113 0 0 -233z
m263 162 c29 -16 37 -28 37 -61 0 -17 -9 -34 -26 -47 -23 -18 -41 -21 -123
-21 l-96 0 3 70 4 70 89 0 c50 0 100 -5 112 -11z m31 -210 c18 -14 26 -30 26
-52 0 -63 -29 -77 -159 -77 l-99 0 -4 75 -3 75 106 0 c92 0 110 -3 133 -21z"/>
<path d="M9413 4304 c-10 -26 4 -307 16 -339 16 -40 59 -84 98 -101 41 -18
114 -18 156 0 39 16 94 76 104 114 5 15 8 97 8 182 l0 155 -27 3 -28 3 0 -150
c0 -216 -25 -265 -135 -265 -110 0 -135 49 -135 264 l0 150 -25 0 c-14 0 -28
-7 -32 -16z"/>
<path d="M9866 4313 c-3 -3 -6 -17 -6 -30 0 -22 3 -23 86 -23 l86 0 -2 -102
c-1 -57 -1 -149 -1 -205 1 -103 1 -103 26 -103 l25 0 0 205 0 205 75 0 75 0 0
29 0 30 -179 0 c-98 0 -181 -3 -185 -6z"/>
<path d="M10424 4306 c-88 -28 -150 -102 -161 -195 -9 -76 12 -137 66 -191 74
-73 172 -90 266 -46 123 57 170 192 110 313 -30 60 -78 100 -143 119 -55 17
-84 17 -138 0z m160 -69 c101 -57 116 -215 27 -290 -87 -73 -211 -51 -269 48
-47 81 -11 208 69 248 49 24 126 21 173 -6z"/>
<path d="M10820 4086 l0 -236 25 0 c24 0 24 2 27 83 l3 82 72 3 71 3 59 -85
c53 -78 61 -86 91 -86 17 0 32 2 32 5 0 3 -27 42 -59 87 l-59 83 33 17 c53 28
75 63 75 120 0 62 -20 100 -67 129 -33 21 -53 24 -170 27 l-133 4 0 -236z
m270 159 c50 -26 58 -101 15 -144 -24 -25 -31 -26 -128 -26 l-102 0 -3 93 -3
92 96 0 c65 0 105 -5 125 -15z"/>
<path d="M11578 4311 c-83 -27 -141 -95 -160 -185 -42 -213 215 -361 382 -219
76 65 103 153 76 245 -17 59 -64 116 -119 144 -36 19 -140 27 -179 15z m117
-52 c107 -30 161 -158 109 -260 -64 -126 -252 -123 -313 4 -35 73 -21 156 36
214 48 48 100 61 168 42z"/>
<path d="M11975 4308 c-3 -8 -4 -112 -3 -233 l3 -220 28 -3 27 -3 0 100 0 101
129 0 129 0 4 25 5 25 -133 0 -134 0 0 80 0 80 146 0 145 0 -3 28 -3 27 -168
3 c-130 2 -169 0 -172 -10z"/>
<path d="M12550 4090 l0 -230 175 0 175 0 0 25 0 25 -145 0 -145 0 0 75 0 75
125 0 125 0 0 25 0 25 -125 0 -125 0 0 75 0 75 141 0 140 0 -3 28 -3 27 -167
3 -168 2 0 -230z"/>
<path d="M12980 4092 c0 -225 1 -231 21 -237 11 -4 22 -5 24 -3 2 2 5 36 6 75
l2 70 92 5 c150 8 210 51 209 151 -1 117 -51 153 -233 163 l-121 7 0 -231z
m239 157 c63 -22 81 -110 33 -159 -32 -31 -85 -43 -167 -38 l-50 3 0 95 c-1
52 1 98 3 103 5 11 145 8 181 -4z"/>
<path d="M13417 4187 c-3 -74 -3 -180 0 -236 6 -98 7 -101 29 -101 23 0 24 3
24 75 l0 75 88 0 c71 0 96 4 132 23 82 42 109 116 72 200 -31 69 -76 89 -223
95 l-116 5 -6 -136z m242 62 c64 -22 80 -107 32 -161 -29 -32 -31 -33 -125
-36 l-96 -4 0 106 0 106 79 0 c43 0 92 -5 110 -11z"/>
</g>
</svg>
